<svg width="600" height="600" viewBox="0 0 600 600" fill="none" xmlns="http://www.w3.org/2000/svg">
<path d="M192.669 558.543C245.337 586.185 271.671 600.003 300 600.003V300.003L19.1406 152.183C18.7269 152.847 18.321 153.518 17.922 154.196C-1.78814e-06 184.631 0 222.504 0 298.248V301.758C0 377.502 -1.78814e-06 415.377 17.922 445.812C35.8437 476.247 68.1189 493.185 132.669 527.058L192.669 558.543Z" fill="white"/>
<path opacity="0.7" d="M467.322 72.9456L407.322 41.4591C354.654 13.8198 328.32 0 299.991 0C271.662 0 245.328 13.8198 192.659 41.4591L132.659 72.9456C69.5462 106.066 37.2872 122.995 19.1309 152.179L299.991 300L580.851 152.179C562.692 122.995 530.433 106.066 467.322 72.9456Z" fill="white"/>
<path opacity="0.5" d="M582.078 154.196C581.679 153.518 581.274 152.847 580.86 152.183L300 300.003V600.003C328.329 600.003 354.663 586.185 407.331 558.543L467.331 527.058C531.882 493.185 564.156 476.247 582.078 445.812C600 415.377 600 377.502 600 301.758V298.248C600 222.504 600 184.631 582.078 154.196Z" fill="white"/>
</svg>
