<svg width="600" height="540" viewBox="0 0 600 540" fill="none" xmlns="http://www.w3.org/2000/svg">
<path d="M322.5 540C430.656 539.982 485.49 539.214 519.852 504.852C555 469.707 555 413.139 555 300V119.941C550.644 120.002 544.527 120.001 540 120.001H59.9998C55.4713 120.001 49.3558 120.002 44.9998 119.941V300C44.9998 413.139 44.9998 469.707 80.1469 504.852C114.509 539.214 169.345 539.982 277.5 540L300 540L322.5 540Z" fill="white"/>
<g opacity="0.5">
<path d="M0 60C0 31.7157 1.78814e-06 17.5737 8.7867 8.7867C17.5737 1.78814e-06 31.7157 0 60 0H540C568.284 0 582.426 1.78814e-06 591.213 8.7867C600 17.5737 600 31.7157 600 60C600 88.2843 600 102.426 591.213 111.213C582.426 120 568.284 120 540 120H60C31.7157 120 17.5737 120 8.7867 111.213C1.78814e-06 102.426 0 88.2843 0 60Z" fill="white"/>
</g>
</svg>
