<svg width="1050" height="1177" viewBox="0 0 1050 1177" fill="none" xmlns="http://www.w3.org/2000/svg">
<path d="M182.497 1062.8L126.146 1176.09C126.146 1176.09 17.1417 1178.52 10.9129 1174.44C4.68413 1170.35 -66.7525 724.307 257.535 366.832C600.508 -11.471 1031.46 -8.74596 1041.78 3.71166C1052.1 16.0719 1049.57 167.315 1049.57 167.315L182.497 1062.8Z" fill="#FF5117"/>
<path d="M595.155 241.283C382.208 361.674 221.426 543.867 146.973 828.932C111.546 964.506 124.88 1175.9 124.88 1175.9H250.624L624.644 626.788L1049.57 228.534V112.133C1049.57 112.133 795.353 127.997 595.155 241.283Z" fill="#FF8E00"/>
<path d="M334.713 695.89C232.035 893.654 250.43 1175.9 250.43 1175.9L373.157 1175.8L792.336 618.905L1049.66 354.278L1049.47 228.632C1049.47 228.632 902.8 227.269 674.475 337.83C491.115 426.494 390.578 588.345 334.713 695.89Z" fill="#F9D81E"/>
<path d="M543.475 596.715C330.625 862.704 370.918 1175.8 370.918 1175.8H507.465L740.656 752.727L1049.66 496.47L1049.57 353.013C1049.57 353.013 733.649 358.95 543.475 596.715Z" fill="#97CC37"/>
<path d="M655.011 656.567C442.648 860.463 489.85 1175.8 489.85 1175.8H599.438L762.75 766.447L1049.66 616.275L1049.57 474.667C1049.57 474.667 861.827 458.121 655.011 656.567Z" fill="#00C0E9"/>
<path d="M1045.28 693.942C1051.8 683.723 1049.66 577.152 1049.66 577.152C1049.66 577.152 872.045 573.941 722.359 742.605C572.965 910.977 594.474 1175.8 594.474 1175.8C594.474 1175.8 696.86 1178.91 701.045 1170.64C709.415 1154.1 672.724 959.153 794.867 821.633C921.389 679.246 1041.68 699.393 1045.28 693.942Z" fill="#8177FA"/>
</svg>
